<?xml version="1.0" encoding="UTF-8"?>
<mxfile>
  <diagram id="umlDiagram">
    <mxGraphModel dx="1041" dy="641" grid="1" gridSize="10" guides="1" tooltips="1" connect="1" arrows="1" fold="1" page="1" pageScale="1" pageWidth="827" pageHeight="1169" math="0" shadow="0">
      <root>
        <mxCell id="0" />
        <mxCell id="1" parent="0" />

        <!-- Program Class -->
        <mxCell id="programClass" value="&lt;b&gt;Program&lt;/b&gt;&#xa;Main(string[] args)&#xa;SelectInputFile()&#xa;SelectSaveFile()" style="rounded=1;whiteSpace=wrap;html=1;" vertex="1" parent="1">
          <mxGeometry x="160" y="160" width="180" height="120" as="geometry" />
        </mxCell>

        <!-- Sobel Class -->
        <mxCell id="sobelClass" value="&lt;b&gt;Sobel&lt;/b&gt;&#xa;ApplySobel(Bitmap)&#xa;ConvertToGrayscale(Bitmap)" style="rounded=1;whiteSpace=wrap;html=1;" vertex="1" parent="1">
          <mxGeometry x="400" y="80" width="180" height="80" as="geometry" />
        </mxCell>

        <!-- Prewitt Class -->
        <mxCell id="prewittClass" value="&lt;b&gt;Prewitt&lt;/b&gt;&#xa;ApplyPrewitt(Bitmap)&#xa;ConvertToGrayscale(Bitmap)" style="rounded=1;whiteSpace=wrap;html=1;" vertex="1" parent="1">
          <mxGeometry x="400" y="240" width="180" height="80" as="geometry" />
        </mxCell>

        <!-- Relationship: Program uses Sobel -->
        <mxCell id="programUsesSobel" edge="1" parent="1" source="programClass" target="sobelClass">
          <mxGeometry relative="1" as="geometry" />
        </mxCell>

        <!-- Relationship: Program uses Prewitt -->
        <mxCell id="programUsesPrewitt" edge="1" parent="1" source="programClass" target="prewittClass">
          <mxGeometry relative="1" as="geometry" />
        </mxCell>

        <!-- Bitmap Class -->
        <mxCell id="bitmapClass" value="&lt;b&gt;Bitmap&lt;/b&gt;" style="rounded=1;whiteSpace=wrap;html=1;" vertex="1" parent="1">
          <mxGeometry x="640" y="160" width="100" height="40" as="geometry" />
        </mxCell>

        <!-- Relationship: Sobel uses Bitmap -->
        <mxCell id="sobelUsesBitmap" edge="1" parent="1" source="sobelClass" target="bitmapClass">
          <mxGeometry relative="1" as="geometry" />
        </mxCell>

        <!-- Relationship: Prewitt uses Bitmap -->
        <mxCell id="prewittUsesBitmap" edge="1" parent="1" source="prewittClass" target="bitmapClass">
          <mxGeometry relative="1" as="geometry" />
        </mxCell>

      </root>
    </mxGraphModel>
  </diagram>
</mxfile>
